<?xml version="1.0" encoding="utf-8" standalone="no"?>
<!DOCTYPE svg PUBLIC "-//W3C//DTD SVG 1.1//EN"
  "http://www.w3.org/Graphics/SVG/1.1/DTD/svg11.dtd">
<!-- Created with matplotlib (http://matplotlib.org/) -->
<svg height="288pt" version="1.1" viewBox="0 0 432 288" width="432pt" xmlns="http://www.w3.org/2000/svg" xmlns:xlink="http://www.w3.org/1999/xlink">
 <defs>
  <style type="text/css">
*{stroke-linecap:butt;stroke-linejoin:round;}
  </style>
 </defs>
 <g id="figure_1">
  <g id="patch_1">
   <path d="M 0 288 
L 432 288 
L 432 0 
L 0 0 
z
" style="fill:#ffffff;"/>
  </g>
  <g id="axes_1">
   <g id="patch_2">
    <path d="M 54 252 
L 388.8 252 
L 388.8 34.56 
L 54 34.56 
z
" style="fill:#808080;"/>
   </g>
   <g id="matplotlib.axis_1">
    <g id="xtick_1">
     <g id="line2d_1"/>
     <g id="text_1">
      <!-- 0 -->
      <defs>
       <path d="M 4.15625 35.296875 
Q 4.15625 48 6.765625 55.734375 
Q 9.375 63.484375 14.515625 67.671875 
Q 19.671875 71.875 27.484375 71.875 
Q 33.25 71.875 37.59375 69.546875 
Q 41.9375 67.234375 44.765625 62.859375 
Q 47.609375 58.5 49.21875 52.21875 
Q 50.828125 45.953125 50.828125 35.296875 
Q 50.828125 22.703125 48.234375 14.96875 
Q 45.65625 7.234375 40.5 3 
Q 35.359375 -1.21875 27.484375 -1.21875 
Q 17.140625 -1.21875 11.234375 6.203125 
Q 4.15625 15.140625 4.15625 35.296875 
z
M 13.1875 35.296875 
Q 13.1875 17.671875 17.3125 11.828125 
Q 21.4375 6 27.484375 6 
Q 33.546875 6 37.671875 11.859375 
Q 41.796875 17.71875 41.796875 35.296875 
Q 41.796875 52.984375 37.671875 58.78125 
Q 33.546875 64.59375 27.390625 64.59375 
Q 21.34375 64.59375 17.71875 59.46875 
Q 13.1875 52.9375 13.1875 35.296875 
z
" id="ArialMT-30"/>
      </defs>
      <g style="fill:#262626;" transform="translate(50.385391 270.405156)scale(0.13 -0.13)">
       <use xlink:href="#ArialMT-30"/>
      </g>
     </g>
    </g>
    <g id="xtick_2">
     <g id="line2d_2"/>
     <g id="text_2">
      <!-- 5 -->
      <defs>
       <path d="M 4.15625 18.75 
L 13.375 19.53125 
Q 14.40625 12.796875 18.140625 9.390625 
Q 21.875 6 27.15625 6 
Q 33.5 6 37.890625 10.78125 
Q 42.28125 15.578125 42.28125 23.484375 
Q 42.28125 31 38.0625 35.34375 
Q 33.84375 39.703125 27 39.703125 
Q 22.75 39.703125 19.328125 37.765625 
Q 15.921875 35.84375 13.96875 32.765625 
L 5.71875 33.84375 
L 12.640625 70.609375 
L 48.25 70.609375 
L 48.25 62.203125 
L 19.671875 62.203125 
L 15.828125 42.96875 
Q 22.265625 47.46875 29.34375 47.46875 
Q 38.71875 47.46875 45.15625 40.96875 
Q 51.609375 34.46875 51.609375 24.265625 
Q 51.609375 14.546875 45.953125 7.46875 
Q 39.0625 -1.21875 27.15625 -1.21875 
Q 17.390625 -1.21875 11.203125 4.25 
Q 5.03125 9.71875 4.15625 18.75 
z
" id="ArialMT-35"/>
      </defs>
      <g style="fill:#262626;" transform="translate(106.185391 270.405156)scale(0.13 -0.13)">
       <use xlink:href="#ArialMT-35"/>
      </g>
     </g>
    </g>
    <g id="xtick_3">
     <g id="line2d_3"/>
     <g id="text_3">
      <!-- 10 -->
      <defs>
       <path d="M 37.25 0 
L 28.46875 0 
L 28.46875 56 
Q 25.296875 52.984375 20.140625 49.953125 
Q 14.984375 46.921875 10.890625 45.40625 
L 10.890625 53.90625 
Q 18.265625 57.375 23.78125 62.296875 
Q 29.296875 67.234375 31.59375 71.875 
L 37.25 71.875 
z
" id="ArialMT-31"/>
      </defs>
      <g style="fill:#262626;" transform="translate(158.370781 270.405156)scale(0.13 -0.13)">
       <use xlink:href="#ArialMT-31"/>
       <use x="55.615234" xlink:href="#ArialMT-30"/>
      </g>
     </g>
    </g>
    <g id="xtick_4">
     <g id="line2d_4"/>
     <g id="text_4">
      <!-- 15 -->
      <g style="fill:#262626;" transform="translate(214.170781 270.405156)scale(0.13 -0.13)">
       <use xlink:href="#ArialMT-31"/>
       <use x="55.615234" xlink:href="#ArialMT-35"/>
      </g>
     </g>
    </g>
    <g id="xtick_5">
     <g id="line2d_5"/>
     <g id="text_5">
      <!-- 20 -->
      <defs>
       <path d="M 50.34375 8.453125 
L 50.34375 0 
L 3.03125 0 
Q 2.9375 3.171875 4.046875 6.109375 
Q 5.859375 10.9375 9.828125 15.625 
Q 13.8125 20.3125 21.34375 26.46875 
Q 33.015625 36.03125 37.109375 41.625 
Q 41.21875 47.21875 41.21875 52.203125 
Q 41.21875 57.421875 37.46875 61 
Q 33.734375 64.59375 27.734375 64.59375 
Q 21.390625 64.59375 17.578125 60.78125 
Q 13.765625 56.984375 13.71875 50.25 
L 4.6875 51.171875 
Q 5.609375 61.28125 11.65625 66.578125 
Q 17.71875 71.875 27.9375 71.875 
Q 38.234375 71.875 44.234375 66.15625 
Q 50.25 60.453125 50.25 52 
Q 50.25 47.703125 48.484375 43.546875 
Q 46.734375 39.40625 42.65625 34.8125 
Q 38.578125 30.21875 29.109375 22.21875 
Q 21.1875 15.578125 18.9375 13.203125 
Q 16.703125 10.84375 15.234375 8.453125 
z
" id="ArialMT-32"/>
      </defs>
      <g style="fill:#262626;" transform="translate(269.970781 270.405156)scale(0.13 -0.13)">
       <use xlink:href="#ArialMT-32"/>
       <use x="55.615234" xlink:href="#ArialMT-30"/>
      </g>
     </g>
    </g>
    <g id="xtick_6">
     <g id="line2d_6"/>
     <g id="text_6">
      <!-- 25 -->
      <g style="fill:#262626;" transform="translate(325.770781 270.405156)scale(0.13 -0.13)">
       <use xlink:href="#ArialMT-32"/>
       <use x="55.615234" xlink:href="#ArialMT-35"/>
      </g>
     </g>
    </g>
    <g id="xtick_7">
     <g id="line2d_7"/>
     <g id="text_7">
      <!-- 30 -->
      <defs>
       <path d="M 4.203125 18.890625 
L 12.984375 20.0625 
Q 14.5 12.59375 18.140625 9.296875 
Q 21.78125 6 27 6 
Q 33.203125 6 37.46875 10.296875 
Q 41.75 14.59375 41.75 20.953125 
Q 41.75 27 37.796875 30.921875 
Q 33.84375 34.859375 27.734375 34.859375 
Q 25.25 34.859375 21.53125 33.890625 
L 22.515625 41.609375 
Q 23.390625 41.5 23.921875 41.5 
Q 29.546875 41.5 34.03125 44.421875 
Q 38.53125 47.359375 38.53125 53.46875 
Q 38.53125 58.296875 35.25 61.46875 
Q 31.984375 64.65625 26.8125 64.65625 
Q 21.6875 64.65625 18.265625 61.421875 
Q 14.84375 58.203125 13.875 51.765625 
L 5.078125 53.328125 
Q 6.6875 62.15625 12.390625 67.015625 
Q 18.109375 71.875 26.609375 71.875 
Q 32.46875 71.875 37.390625 69.359375 
Q 42.328125 66.84375 44.9375 62.5 
Q 47.5625 58.15625 47.5625 53.265625 
Q 47.5625 48.640625 45.0625 44.828125 
Q 42.578125 41.015625 37.703125 38.765625 
Q 44.046875 37.3125 47.5625 32.6875 
Q 51.078125 28.078125 51.078125 21.140625 
Q 51.078125 11.765625 44.234375 5.25 
Q 37.40625 -1.265625 26.953125 -1.265625 
Q 17.53125 -1.265625 11.296875 4.34375 
Q 5.078125 9.96875 4.203125 18.890625 
z
" id="ArialMT-33"/>
      </defs>
      <g style="fill:#262626;" transform="translate(381.570781 270.405156)scale(0.13 -0.13)">
       <use xlink:href="#ArialMT-33"/>
       <use x="55.615234" xlink:href="#ArialMT-30"/>
      </g>
     </g>
    </g>
    <g id="text_8">
     <!-- Average score from both methods (min) -->
     <defs>
      <path d="M -0.140625 0 
L 27.34375 71.578125 
L 37.546875 71.578125 
L 66.84375 0 
L 56.0625 0 
L 47.703125 21.6875 
L 17.78125 21.6875 
L 9.90625 0 
z
M 20.515625 29.390625 
L 44.78125 29.390625 
L 37.3125 49.21875 
Q 33.890625 58.25 32.234375 64.0625 
Q 30.859375 57.171875 28.375 50.390625 
z
" id="ArialMT-41"/>
      <path d="M 21 0 
L 1.265625 51.859375 
L 10.546875 51.859375 
L 21.6875 20.796875 
Q 23.484375 15.765625 25 10.359375 
Q 26.171875 14.453125 28.265625 20.21875 
L 39.796875 51.859375 
L 48.828125 51.859375 
L 29.203125 0 
z
" id="ArialMT-76"/>
      <path d="M 42.09375 16.703125 
L 51.171875 15.578125 
Q 49.03125 7.625 43.21875 3.21875 
Q 37.40625 -1.171875 28.375 -1.171875 
Q 17 -1.171875 10.328125 5.828125 
Q 3.65625 12.84375 3.65625 25.484375 
Q 3.65625 38.578125 10.390625 45.796875 
Q 17.140625 53.03125 27.875 53.03125 
Q 38.28125 53.03125 44.875 45.953125 
Q 51.46875 38.875 51.46875 26.03125 
Q 51.46875 25.25 51.421875 23.6875 
L 12.75 23.6875 
Q 13.234375 15.140625 17.578125 10.59375 
Q 21.921875 6.0625 28.421875 6.0625 
Q 33.25 6.0625 36.671875 8.59375 
Q 40.09375 11.140625 42.09375 16.703125 
z
M 13.234375 30.90625 
L 42.1875 30.90625 
Q 41.609375 37.453125 38.875 40.71875 
Q 34.671875 45.796875 27.984375 45.796875 
Q 21.921875 45.796875 17.796875 41.75 
Q 13.671875 37.703125 13.234375 30.90625 
z
" id="ArialMT-65"/>
      <path d="M 6.5 0 
L 6.5 51.859375 
L 14.40625 51.859375 
L 14.40625 44 
Q 17.4375 49.515625 20 51.265625 
Q 22.5625 53.03125 25.640625 53.03125 
Q 30.078125 53.03125 34.671875 50.203125 
L 31.640625 42.046875 
Q 28.421875 43.953125 25.203125 43.953125 
Q 22.3125 43.953125 20.015625 42.21875 
Q 17.71875 40.484375 16.75 37.40625 
Q 15.28125 32.71875 15.28125 27.15625 
L 15.28125 0 
z
" id="ArialMT-72"/>
      <path d="M 40.4375 6.390625 
Q 35.546875 2.25 31.03125 0.53125 
Q 26.515625 -1.171875 21.34375 -1.171875 
Q 12.796875 -1.171875 8.203125 3 
Q 3.609375 7.171875 3.609375 13.671875 
Q 3.609375 17.484375 5.34375 20.625 
Q 7.078125 23.78125 9.890625 25.6875 
Q 12.703125 27.59375 16.21875 28.5625 
Q 18.796875 29.25 24.03125 29.890625 
Q 34.671875 31.15625 39.703125 32.90625 
Q 39.75 34.71875 39.75 35.203125 
Q 39.75 40.578125 37.25 42.78125 
Q 33.890625 45.75 27.25 45.75 
Q 21.046875 45.75 18.09375 43.578125 
Q 15.140625 41.40625 13.71875 35.890625 
L 5.125 37.0625 
Q 6.296875 42.578125 8.984375 45.96875 
Q 11.671875 49.359375 16.75 51.1875 
Q 21.828125 53.03125 28.515625 53.03125 
Q 35.15625 53.03125 39.296875 51.46875 
Q 43.453125 49.90625 45.40625 47.53125 
Q 47.359375 45.171875 48.140625 41.546875 
Q 48.578125 39.3125 48.578125 33.453125 
L 48.578125 21.734375 
Q 48.578125 9.46875 49.140625 6.21875 
Q 49.703125 2.984375 51.375 0 
L 42.1875 0 
Q 40.828125 2.734375 40.4375 6.390625 
z
M 39.703125 26.03125 
Q 34.90625 24.078125 25.34375 22.703125 
Q 19.921875 21.921875 17.671875 20.9375 
Q 15.4375 19.96875 14.203125 18.09375 
Q 12.984375 16.21875 12.984375 13.921875 
Q 12.984375 10.40625 15.640625 8.0625 
Q 18.3125 5.71875 23.4375 5.71875 
Q 28.515625 5.71875 32.46875 7.9375 
Q 36.421875 10.15625 38.28125 14.015625 
Q 39.703125 17 39.703125 22.796875 
z
" id="ArialMT-61"/>
      <path d="M 4.984375 -4.296875 
L 13.53125 -5.5625 
Q 14.0625 -9.515625 16.5 -11.328125 
Q 19.78125 -13.765625 25.4375 -13.765625 
Q 31.546875 -13.765625 34.859375 -11.328125 
Q 38.1875 -8.890625 39.359375 -4.5 
Q 40.046875 -1.8125 39.984375 6.78125 
Q 34.234375 0 25.640625 0 
Q 14.9375 0 9.078125 7.71875 
Q 3.21875 15.4375 3.21875 26.21875 
Q 3.21875 33.640625 5.90625 39.90625 
Q 8.59375 46.1875 13.6875 49.609375 
Q 18.796875 53.03125 25.6875 53.03125 
Q 34.859375 53.03125 40.828125 45.609375 
L 40.828125 51.859375 
L 48.921875 51.859375 
L 48.921875 7.03125 
Q 48.921875 -5.078125 46.453125 -10.125 
Q 44 -15.1875 38.640625 -18.109375 
Q 33.296875 -21.046875 25.484375 -21.046875 
Q 16.21875 -21.046875 10.5 -16.875 
Q 4.78125 -12.703125 4.984375 -4.296875 
z
M 12.25 26.859375 
Q 12.25 16.65625 16.296875 11.96875 
Q 20.359375 7.28125 26.46875 7.28125 
Q 32.515625 7.28125 36.609375 11.9375 
Q 40.71875 16.609375 40.71875 26.5625 
Q 40.71875 36.078125 36.5 40.90625 
Q 32.28125 45.75 26.3125 45.75 
Q 20.453125 45.75 16.34375 40.984375 
Q 12.25 36.234375 12.25 26.859375 
z
" id="ArialMT-67"/>
      <path id="ArialMT-20"/>
      <path d="M 3.078125 15.484375 
L 11.765625 16.84375 
Q 12.5 11.625 15.84375 8.84375 
Q 19.1875 6.0625 25.203125 6.0625 
Q 31.25 6.0625 34.171875 8.515625 
Q 37.109375 10.984375 37.109375 14.3125 
Q 37.109375 17.28125 34.515625 19 
Q 32.71875 20.171875 25.53125 21.96875 
Q 15.875 24.421875 12.140625 26.203125 
Q 8.40625 27.984375 6.46875 31.125 
Q 4.546875 34.28125 4.546875 38.09375 
Q 4.546875 41.546875 6.125 44.5 
Q 7.71875 47.46875 10.453125 49.421875 
Q 12.5 50.921875 16.03125 51.96875 
Q 19.578125 53.03125 23.640625 53.03125 
Q 29.734375 53.03125 34.34375 51.265625 
Q 38.96875 49.515625 41.15625 46.5 
Q 43.359375 43.5 44.1875 38.484375 
L 35.59375 37.3125 
Q 35.015625 41.3125 32.203125 43.546875 
Q 29.390625 45.796875 24.265625 45.796875 
Q 18.21875 45.796875 15.625 43.796875 
Q 13.03125 41.796875 13.03125 39.109375 
Q 13.03125 37.40625 14.109375 36.03125 
Q 15.1875 34.625 17.484375 33.6875 
Q 18.796875 33.203125 25.25 31.453125 
Q 34.578125 28.953125 38.25 27.359375 
Q 41.9375 25.78125 44.03125 22.75 
Q 46.140625 19.734375 46.140625 15.234375 
Q 46.140625 10.84375 43.578125 6.953125 
Q 41.015625 3.078125 36.171875 0.953125 
Q 31.34375 -1.171875 25.25 -1.171875 
Q 15.140625 -1.171875 9.84375 3.03125 
Q 4.546875 7.234375 3.078125 15.484375 
z
" id="ArialMT-73"/>
      <path d="M 40.4375 19 
L 49.078125 17.875 
Q 47.65625 8.9375 41.8125 3.875 
Q 35.984375 -1.171875 27.484375 -1.171875 
Q 16.84375 -1.171875 10.375 5.78125 
Q 3.90625 12.75 3.90625 25.734375 
Q 3.90625 34.125 6.6875 40.421875 
Q 9.46875 46.734375 15.15625 49.875 
Q 20.84375 53.03125 27.546875 53.03125 
Q 35.984375 53.03125 41.359375 48.75 
Q 46.734375 44.484375 48.25 36.625 
L 39.703125 35.296875 
Q 38.484375 40.53125 35.375 43.15625 
Q 32.28125 45.796875 27.875 45.796875 
Q 21.234375 45.796875 17.078125 41.03125 
Q 12.9375 36.28125 12.9375 25.984375 
Q 12.9375 15.53125 16.9375 10.796875 
Q 20.953125 6.0625 27.390625 6.0625 
Q 32.5625 6.0625 36.03125 9.234375 
Q 39.5 12.40625 40.4375 19 
z
" id="ArialMT-63"/>
      <path d="M 3.328125 25.921875 
Q 3.328125 40.328125 11.328125 47.265625 
Q 18.015625 53.03125 27.640625 53.03125 
Q 38.328125 53.03125 45.109375 46.015625 
Q 51.90625 39.015625 51.90625 26.65625 
Q 51.90625 16.65625 48.90625 10.90625 
Q 45.90625 5.171875 40.15625 2 
Q 34.421875 -1.171875 27.640625 -1.171875 
Q 16.75 -1.171875 10.03125 5.8125 
Q 3.328125 12.796875 3.328125 25.921875 
z
M 12.359375 25.921875 
Q 12.359375 15.96875 16.703125 11.015625 
Q 21.046875 6.0625 27.640625 6.0625 
Q 34.1875 6.0625 38.53125 11.03125 
Q 42.875 16.015625 42.875 26.21875 
Q 42.875 35.84375 38.5 40.796875 
Q 34.125 45.75 27.640625 45.75 
Q 21.046875 45.75 16.703125 40.8125 
Q 12.359375 35.890625 12.359375 25.921875 
z
" id="ArialMT-6f"/>
      <path d="M 8.6875 0 
L 8.6875 45.015625 
L 0.921875 45.015625 
L 0.921875 51.859375 
L 8.6875 51.859375 
L 8.6875 57.375 
Q 8.6875 62.59375 9.625 65.140625 
Q 10.890625 68.5625 14.078125 70.671875 
Q 17.28125 72.796875 23.046875 72.796875 
Q 26.765625 72.796875 31.25 71.921875 
L 29.9375 64.265625 
Q 27.203125 64.75 24.75 64.75 
Q 20.75 64.75 19.09375 63.03125 
Q 17.4375 61.328125 17.4375 56.640625 
L 17.4375 51.859375 
L 27.546875 51.859375 
L 27.546875 45.015625 
L 17.4375 45.015625 
L 17.4375 0 
z
" id="ArialMT-66"/>
      <path d="M 6.59375 0 
L 6.59375 51.859375 
L 14.453125 51.859375 
L 14.453125 44.578125 
Q 16.890625 48.390625 20.9375 50.703125 
Q 25 53.03125 30.171875 53.03125 
Q 35.9375 53.03125 39.625 50.640625 
Q 43.3125 48.25 44.828125 43.953125 
Q 50.984375 53.03125 60.84375 53.03125 
Q 68.5625 53.03125 72.703125 48.75 
Q 76.859375 44.484375 76.859375 35.59375 
L 76.859375 0 
L 68.109375 0 
L 68.109375 32.671875 
Q 68.109375 37.9375 67.25 40.25 
Q 66.40625 42.578125 64.15625 43.984375 
Q 61.921875 45.40625 58.890625 45.40625 
Q 53.421875 45.40625 49.796875 41.765625 
Q 46.1875 38.140625 46.1875 30.125 
L 46.1875 0 
L 37.40625 0 
L 37.40625 33.6875 
Q 37.40625 39.546875 35.25 42.46875 
Q 33.109375 45.40625 28.21875 45.40625 
Q 24.515625 45.40625 21.359375 43.453125 
Q 18.21875 41.5 16.796875 37.734375 
Q 15.375 33.984375 15.375 26.90625 
L 15.375 0 
z
" id="ArialMT-6d"/>
      <path d="M 14.703125 0 
L 6.546875 0 
L 6.546875 71.578125 
L 15.328125 71.578125 
L 15.328125 46.046875 
Q 20.90625 53.03125 29.546875 53.03125 
Q 34.328125 53.03125 38.59375 51.09375 
Q 42.875 49.171875 45.625 45.671875 
Q 48.390625 42.1875 49.953125 37.25 
Q 51.515625 32.328125 51.515625 26.703125 
Q 51.515625 13.375 44.921875 6.09375 
Q 38.328125 -1.171875 29.109375 -1.171875 
Q 19.921875 -1.171875 14.703125 6.5 
z
M 14.59375 26.3125 
Q 14.59375 17 17.140625 12.84375 
Q 21.296875 6.0625 28.375 6.0625 
Q 34.125 6.0625 38.328125 11.0625 
Q 42.53125 16.0625 42.53125 25.984375 
Q 42.53125 36.140625 38.5 40.96875 
Q 34.46875 45.796875 28.765625 45.796875 
Q 23 45.796875 18.796875 40.796875 
Q 14.59375 35.796875 14.59375 26.3125 
z
" id="ArialMT-62"/>
      <path d="M 25.78125 7.859375 
L 27.046875 0.09375 
Q 23.34375 -0.6875 20.40625 -0.6875 
Q 15.625 -0.6875 12.984375 0.828125 
Q 10.359375 2.34375 9.28125 4.8125 
Q 8.203125 7.28125 8.203125 15.1875 
L 8.203125 45.015625 
L 1.765625 45.015625 
L 1.765625 51.859375 
L 8.203125 51.859375 
L 8.203125 64.703125 
L 16.9375 69.96875 
L 16.9375 51.859375 
L 25.78125 51.859375 
L 25.78125 45.015625 
L 16.9375 45.015625 
L 16.9375 14.703125 
Q 16.9375 10.9375 17.40625 9.859375 
Q 17.875 8.796875 18.921875 8.15625 
Q 19.96875 7.515625 21.921875 7.515625 
Q 23.390625 7.515625 25.78125 7.859375 
z
" id="ArialMT-74"/>
      <path d="M 6.59375 0 
L 6.59375 71.578125 
L 15.375 71.578125 
L 15.375 45.90625 
Q 21.53125 53.03125 30.90625 53.03125 
Q 36.671875 53.03125 40.921875 50.75 
Q 45.171875 48.484375 47 44.484375 
Q 48.828125 40.484375 48.828125 32.859375 
L 48.828125 0 
L 40.046875 0 
L 40.046875 32.859375 
Q 40.046875 39.453125 37.1875 42.453125 
Q 34.328125 45.453125 29.109375 45.453125 
Q 25.203125 45.453125 21.75 43.421875 
Q 18.3125 41.40625 16.84375 37.9375 
Q 15.375 34.46875 15.375 28.375 
L 15.375 0 
z
" id="ArialMT-68"/>
      <path d="M 40.234375 0 
L 40.234375 6.546875 
Q 35.296875 -1.171875 25.734375 -1.171875 
Q 19.53125 -1.171875 14.328125 2.25 
Q 9.125 5.671875 6.265625 11.796875 
Q 3.421875 17.921875 3.421875 25.875 
Q 3.421875 33.640625 6 39.96875 
Q 8.59375 46.296875 13.765625 49.65625 
Q 18.953125 53.03125 25.34375 53.03125 
Q 30.03125 53.03125 33.6875 51.046875 
Q 37.359375 49.078125 39.65625 45.90625 
L 39.65625 71.578125 
L 48.390625 71.578125 
L 48.390625 0 
z
M 12.453125 25.875 
Q 12.453125 15.921875 16.640625 10.984375 
Q 20.84375 6.0625 26.5625 6.0625 
Q 32.328125 6.0625 36.34375 10.765625 
Q 40.375 15.484375 40.375 25.140625 
Q 40.375 35.796875 36.265625 40.765625 
Q 32.171875 45.75 26.171875 45.75 
Q 20.3125 45.75 16.375 40.96875 
Q 12.453125 36.1875 12.453125 25.875 
z
" id="ArialMT-64"/>
      <path d="M 23.390625 -21.046875 
Q 16.109375 -11.859375 11.078125 0.4375 
Q 6.0625 12.75 6.0625 25.921875 
Q 6.0625 37.546875 9.8125 48.1875 
Q 14.203125 60.546875 23.390625 72.796875 
L 29.6875 72.796875 
Q 23.78125 62.640625 21.875 58.296875 
Q 18.890625 51.5625 17.1875 44.234375 
Q 15.09375 35.109375 15.09375 25.875 
Q 15.09375 2.390625 29.6875 -21.046875 
z
" id="ArialMT-28"/>
      <path d="M 6.640625 61.46875 
L 6.640625 71.578125 
L 15.4375 71.578125 
L 15.4375 61.46875 
z
M 6.640625 0 
L 6.640625 51.859375 
L 15.4375 51.859375 
L 15.4375 0 
z
" id="ArialMT-69"/>
      <path d="M 6.59375 0 
L 6.59375 51.859375 
L 14.5 51.859375 
L 14.5 44.484375 
Q 20.21875 53.03125 31 53.03125 
Q 35.6875 53.03125 39.625 51.34375 
Q 43.5625 49.65625 45.515625 46.921875 
Q 47.46875 44.1875 48.25 40.4375 
Q 48.734375 37.984375 48.734375 31.890625 
L 48.734375 0 
L 39.9375 0 
L 39.9375 31.546875 
Q 39.9375 36.921875 38.90625 39.578125 
Q 37.890625 42.234375 35.28125 43.8125 
Q 32.671875 45.40625 29.15625 45.40625 
Q 23.53125 45.40625 19.453125 41.84375 
Q 15.375 38.28125 15.375 28.328125 
L 15.375 0 
z
" id="ArialMT-6e"/>
      <path d="M 12.359375 -21.046875 
L 6.0625 -21.046875 
Q 20.65625 2.390625 20.65625 25.875 
Q 20.65625 35.0625 18.5625 44.09375 
Q 16.890625 51.421875 13.921875 58.15625 
Q 12.015625 62.546875 6.0625 72.796875 
L 12.359375 72.796875 
Q 21.53125 60.546875 25.921875 48.1875 
Q 29.6875 37.546875 29.6875 25.921875 
Q 29.6875 12.75 24.625 0.4375 
Q 19.578125 -11.859375 12.359375 -21.046875 
z
" id="ArialMT-29"/>
     </defs>
     <g style="fill:#262626;" transform="translate(115.699688 285.724531)scale(0.12 -0.12)">
      <use xlink:href="#ArialMT-41"/>
      <use x="66.683594" xlink:href="#ArialMT-76"/>
      <use x="116.683594" xlink:href="#ArialMT-65"/>
      <use x="172.298828" xlink:href="#ArialMT-72"/>
      <use x="205.599609" xlink:href="#ArialMT-61"/>
      <use x="261.214844" xlink:href="#ArialMT-67"/>
      <use x="316.830078" xlink:href="#ArialMT-65"/>
      <use x="372.445312" xlink:href="#ArialMT-20"/>
      <use x="400.228516" xlink:href="#ArialMT-73"/>
      <use x="450.228516" xlink:href="#ArialMT-63"/>
      <use x="500.228516" xlink:href="#ArialMT-6f"/>
      <use x="555.84375" xlink:href="#ArialMT-72"/>
      <use x="589.144531" xlink:href="#ArialMT-65"/>
      <use x="644.759766" xlink:href="#ArialMT-20"/>
      <use x="672.542969" xlink:href="#ArialMT-66"/>
      <use x="700.326172" xlink:href="#ArialMT-72"/>
      <use x="733.626953" xlink:href="#ArialMT-6f"/>
      <use x="789.242188" xlink:href="#ArialMT-6d"/>
      <use x="872.542969" xlink:href="#ArialMT-20"/>
      <use x="900.326172" xlink:href="#ArialMT-62"/>
      <use x="955.941406" xlink:href="#ArialMT-6f"/>
      <use x="1011.556641" xlink:href="#ArialMT-74"/>
      <use x="1039.339844" xlink:href="#ArialMT-68"/>
      <use x="1094.955078" xlink:href="#ArialMT-20"/>
      <use x="1122.738281" xlink:href="#ArialMT-6d"/>
      <use x="1206.039062" xlink:href="#ArialMT-65"/>
      <use x="1261.654297" xlink:href="#ArialMT-74"/>
      <use x="1289.4375" xlink:href="#ArialMT-68"/>
      <use x="1345.052734" xlink:href="#ArialMT-6f"/>
      <use x="1400.667969" xlink:href="#ArialMT-64"/>
      <use x="1456.283203" xlink:href="#ArialMT-73"/>
      <use x="1506.283203" xlink:href="#ArialMT-20"/>
      <use x="1534.066406" xlink:href="#ArialMT-28"/>
      <use x="1567.367188" xlink:href="#ArialMT-6d"/>
      <use x="1650.667969" xlink:href="#ArialMT-69"/>
      <use x="1672.884766" xlink:href="#ArialMT-6e"/>
      <use x="1728.5" xlink:href="#ArialMT-29"/>
     </g>
    </g>
   </g>
   <g id="matplotlib.axis_2">
    <g id="ytick_1">
     <g id="line2d_8"/>
     <g id="text_9">
      <!-- −30 -->
      <defs>
       <path d="M 52.828125 31.203125 
L 5.5625 31.203125 
L 5.5625 39.40625 
L 52.828125 39.40625 
z
" id="ArialMT-2212"/>
      </defs>
      <g style="fill:#262626;" transform="translate(22.84875 256.652578)scale(0.13 -0.13)">
       <use xlink:href="#ArialMT-2212"/>
       <use x="58.398438" xlink:href="#ArialMT-33"/>
       <use x="114.013672" xlink:href="#ArialMT-30"/>
      </g>
     </g>
    </g>
    <g id="ytick_2">
     <g id="line2d_9"/>
     <g id="text_10">
      <!-- −20 -->
      <g style="fill:#262626;" transform="translate(22.84875 220.412578)scale(0.13 -0.13)">
       <use xlink:href="#ArialMT-2212"/>
       <use x="58.398438" xlink:href="#ArialMT-32"/>
       <use x="114.013672" xlink:href="#ArialMT-30"/>
      </g>
     </g>
    </g>
    <g id="ytick_3">
     <g id="line2d_10"/>
     <g id="text_11">
      <!-- −10 -->
      <g style="fill:#262626;" transform="translate(22.84875 184.172578)scale(0.13 -0.13)">
       <use xlink:href="#ArialMT-2212"/>
       <use x="58.398438" xlink:href="#ArialMT-31"/>
       <use x="114.013672" xlink:href="#ArialMT-30"/>
      </g>
     </g>
    </g>
    <g id="ytick_4">
     <g id="line2d_11"/>
     <g id="text_12">
      <!-- 0 -->
      <g style="fill:#262626;" transform="translate(37.670781 147.932578)scale(0.13 -0.13)">
       <use xlink:href="#ArialMT-30"/>
      </g>
     </g>
    </g>
    <g id="ytick_5">
     <g id="line2d_12"/>
     <g id="text_13">
      <!-- 10 -->
      <g style="fill:#262626;" transform="translate(30.441562 111.692578)scale(0.13 -0.13)">
       <use xlink:href="#ArialMT-31"/>
       <use x="55.615234" xlink:href="#ArialMT-30"/>
      </g>
     </g>
    </g>
    <g id="ytick_6">
     <g id="line2d_13"/>
     <g id="text_14">
      <!-- 20 -->
      <g style="fill:#262626;" transform="translate(30.441562 75.452578)scale(0.13 -0.13)">
       <use xlink:href="#ArialMT-32"/>
       <use x="55.615234" xlink:href="#ArialMT-30"/>
      </g>
     </g>
    </g>
    <g id="ytick_7">
     <g id="line2d_14"/>
     <g id="text_15">
      <!-- 30 -->
      <g style="fill:#262626;" transform="translate(30.441562 39.212578)scale(0.13 -0.13)">
       <use xlink:href="#ArialMT-33"/>
       <use x="55.615234" xlink:href="#ArialMT-30"/>
      </g>
     </g>
    </g>
    <g id="text_16">
     <!-- PIR score - EEG score (min) -->
     <defs>
      <path d="M 7.71875 0 
L 7.71875 71.578125 
L 34.71875 71.578125 
Q 41.84375 71.578125 45.609375 70.90625 
Q 50.875 70.015625 54.4375 67.546875 
Q 58.015625 65.09375 60.1875 60.640625 
Q 62.359375 56.203125 62.359375 50.875 
Q 62.359375 41.75 56.546875 35.421875 
Q 50.734375 29.109375 35.546875 29.109375 
L 17.1875 29.109375 
L 17.1875 0 
z
M 17.1875 37.546875 
L 35.6875 37.546875 
Q 44.875 37.546875 48.734375 40.96875 
Q 52.59375 44.390625 52.59375 50.59375 
Q 52.59375 55.078125 50.3125 58.265625 
Q 48.046875 61.46875 44.34375 62.5 
Q 41.9375 63.140625 35.5 63.140625 
L 17.1875 63.140625 
z
" id="ArialMT-50"/>
      <path d="M 9.328125 0 
L 9.328125 71.578125 
L 18.796875 71.578125 
L 18.796875 0 
z
" id="ArialMT-49"/>
      <path d="M 7.859375 0 
L 7.859375 71.578125 
L 39.59375 71.578125 
Q 49.171875 71.578125 54.140625 69.640625 
Q 59.125 67.71875 62.109375 62.828125 
Q 65.09375 57.953125 65.09375 52.046875 
Q 65.09375 44.4375 60.15625 39.203125 
Q 55.21875 33.984375 44.921875 32.5625 
Q 48.6875 30.765625 50.640625 29 
Q 54.78125 25.203125 58.5 19.484375 
L 70.953125 0 
L 59.03125 0 
L 49.5625 14.890625 
Q 45.40625 21.34375 42.71875 24.75 
Q 40.046875 28.171875 37.921875 29.53125 
Q 35.796875 30.90625 33.59375 31.453125 
Q 31.984375 31.78125 28.328125 31.78125 
L 17.328125 31.78125 
L 17.328125 0 
z
M 17.328125 39.984375 
L 37.703125 39.984375 
Q 44.1875 39.984375 47.84375 41.328125 
Q 51.515625 42.671875 53.421875 45.625 
Q 55.328125 48.578125 55.328125 52.046875 
Q 55.328125 57.125 51.640625 60.390625 
Q 47.953125 63.671875 39.984375 63.671875 
L 17.328125 63.671875 
z
" id="ArialMT-52"/>
      <path d="M 3.171875 21.484375 
L 3.171875 30.328125 
L 30.171875 30.328125 
L 30.171875 21.484375 
z
" id="ArialMT-2d"/>
      <path d="M 7.90625 0 
L 7.90625 71.578125 
L 59.671875 71.578125 
L 59.671875 63.140625 
L 17.390625 63.140625 
L 17.390625 41.21875 
L 56.984375 41.21875 
L 56.984375 32.8125 
L 17.390625 32.8125 
L 17.390625 8.453125 
L 61.328125 8.453125 
L 61.328125 0 
z
" id="ArialMT-45"/>
      <path d="M 41.21875 28.078125 
L 41.21875 36.46875 
L 71.53125 36.53125 
L 71.53125 9.96875 
Q 64.546875 4.390625 57.125 1.578125 
Q 49.703125 -1.21875 41.890625 -1.21875 
Q 31.34375 -1.21875 22.71875 3.296875 
Q 14.109375 7.8125 9.71875 16.359375 
Q 5.328125 24.90625 5.328125 35.453125 
Q 5.328125 45.90625 9.6875 54.953125 
Q 14.0625 64.015625 22.265625 68.40625 
Q 30.46875 72.796875 41.15625 72.796875 
Q 48.921875 72.796875 55.1875 70.28125 
Q 61.46875 67.78125 65.03125 63.28125 
Q 68.609375 58.796875 70.453125 51.5625 
L 61.921875 49.21875 
Q 60.296875 54.6875 57.90625 57.8125 
Q 55.515625 60.9375 51.0625 62.8125 
Q 46.625 64.703125 41.21875 64.703125 
Q 34.71875 64.703125 29.984375 62.71875 
Q 25.25 60.75 22.34375 57.515625 
Q 19.4375 54.296875 17.828125 50.4375 
Q 15.09375 43.796875 15.09375 36.03125 
Q 15.09375 26.46875 18.390625 20.015625 
Q 21.6875 13.578125 27.984375 10.453125 
Q 34.28125 7.328125 41.359375 7.328125 
Q 47.515625 7.328125 53.375 9.6875 
Q 59.234375 12.0625 62.25 14.75 
L 62.25 28.078125 
z
" id="ArialMT-47"/>
     </defs>
     <g style="fill:#262626;" transform="translate(16.323125 219.290625)rotate(-90)scale(0.12 -0.12)">
      <use xlink:href="#ArialMT-50"/>
      <use x="66.699219" xlink:href="#ArialMT-49"/>
      <use x="94.482422" xlink:href="#ArialMT-52"/>
      <use x="166.699219" xlink:href="#ArialMT-20"/>
      <use x="194.482422" xlink:href="#ArialMT-73"/>
      <use x="244.482422" xlink:href="#ArialMT-63"/>
      <use x="294.482422" xlink:href="#ArialMT-6f"/>
      <use x="350.097656" xlink:href="#ArialMT-72"/>
      <use x="383.398438" xlink:href="#ArialMT-65"/>
      <use x="439.013672" xlink:href="#ArialMT-20"/>
      <use x="466.796875" xlink:href="#ArialMT-2d"/>
      <use x="500.097656" xlink:href="#ArialMT-20"/>
      <use x="527.880859" xlink:href="#ArialMT-45"/>
      <use x="594.580078" xlink:href="#ArialMT-45"/>
      <use x="661.279297" xlink:href="#ArialMT-47"/>
      <use x="739.0625" xlink:href="#ArialMT-20"/>
      <use x="766.845703" xlink:href="#ArialMT-73"/>
      <use x="816.845703" xlink:href="#ArialMT-63"/>
      <use x="866.845703" xlink:href="#ArialMT-6f"/>
      <use x="922.460938" xlink:href="#ArialMT-72"/>
      <use x="955.761719" xlink:href="#ArialMT-65"/>
      <use x="1011.376953" xlink:href="#ArialMT-20"/>
      <use x="1039.160156" xlink:href="#ArialMT-28"/>
      <use x="1072.460938" xlink:href="#ArialMT-6d"/>
      <use x="1155.761719" xlink:href="#ArialMT-69"/>
      <use x="1177.978516" xlink:href="#ArialMT-6e"/>
      <use x="1233.59375" xlink:href="#ArialMT-29"/>
     </g>
    </g>
   </g>
   <g id="PathCollection_1">
    <defs>
     <path d="M 0 4.55 
C 1.206674 4.55 2.364088 4.070583 3.217336 3.217336 
C 4.070583 2.364088 4.55 1.206674 4.55 0 
C 4.55 -1.206674 4.070583 -2.364088 3.217336 -3.217336 
C 2.364088 -4.070583 1.206674 -4.55 0 -4.55 
C -1.206674 -4.55 -2.364088 -4.070583 -3.217336 -3.217336 
C -4.070583 -2.364088 -4.55 -1.206674 -4.55 0 
C -4.55 1.206674 -4.070583 2.364088 -3.217336 3.217336 
C -2.364088 4.070583 -1.206674 4.55 0 4.55 
z
" id="mc0e0cc429f" style="stroke:#ffd701;stroke-width:3;"/>
    </defs>
    <g clip-path="url(#p332e7bf7ce)">
     <use style="fill:#ffd701;stroke:#ffd701;stroke-width:3;" x="371.1114" xlink:href="#mc0e0cc429f" y="135.41592"/>
     <use style="fill:#ffd701;stroke:#ffd701;stroke-width:3;" x="271.62" xlink:href="#mc0e0cc429f" y="128.784"/>
     <use style="fill:#ffd701;stroke:#ffd701;stroke-width:3;" x="273.48" xlink:href="#mc0e0cc429f" y="142.072"/>
     <use style="fill:#ffd701;stroke:#ffd701;stroke-width:3;" x="218.6472" xlink:href="#mc0e0cc429f" y="122.16416"/>
     <use style="fill:#ffd701;stroke:#ffd701;stroke-width:3;" x="209.31" xlink:href="#mc0e0cc429f" y="136.636"/>
     <use style="fill:#ffd701;stroke:#ffd701;stroke-width:3;" x="145.14" xlink:href="#mc0e0cc429f" y="134.824"/>
     <use style="fill:#ffd701;stroke:#ffd701;stroke-width:3;" x="348.7728" xlink:href="#mc0e0cc429f" y="137.81984"/>
     <use style="fill:#ffd701;stroke:#ffd701;stroke-width:3;" x="314.100508" xlink:href="#mc0e0cc429f" y="122.938508"/>
     <use style="fill:#ffd701;stroke:#ffd701;stroke-width:3;" x="374.8686" xlink:href="#mc0e0cc429f" y="139.06408"/>
     <use style="fill:#ffd701;stroke:#ffd701;stroke-width:3;" x="306.9414" xlink:href="#mc0e0cc429f" y="140.85192"/>
     <use style="fill:#ffd701;stroke:#ffd701;stroke-width:3;" x="357.18" xlink:href="#mc0e0cc429f" y="138.448"/>
     <use style="fill:#ffd701;stroke:#ffd701;stroke-width:3;" x="281.629322" xlink:href="#mc0e0cc429f" y="144.027322"/>
     <use style="fill:#ffd701;stroke:#ffd701;stroke-width:3;" x="308.82" xlink:href="#mc0e0cc429f" y="137.24"/>
     <use style="fill:#ffd701;stroke:#ffd701;stroke-width:3;" x="318.12" xlink:href="#mc0e0cc429f" y="138.448"/>
     <use style="fill:#ffd701;stroke:#ffd701;stroke-width:3;" x="356.2872" xlink:href="#mc0e0cc429f" y="134.24416"/>
     <use style="fill:#ffd701;stroke:#ffd701;stroke-width:3;" x="156.2814" xlink:href="#mc0e0cc429f" y="126.35592"/>
     <use style="fill:#ffd701;stroke:#ffd701;stroke-width:3;" x="361.8114" xlink:href="#mc0e0cc429f" y="141.45592"/>
     <use style="fill:#ffd701;stroke:#ffd701;stroke-width:3;" x="345.0528" xlink:href="#mc0e0cc429f" y="151.10784"/>
     <use style="fill:#ffd701;stroke:#ffd701;stroke-width:3;" x="348.441783" xlink:href="#mc0e0cc429f" y="148.906823"/>
     <use style="fill:#ffd701;stroke:#ffd701;stroke-width:3;" x="256.74" xlink:href="#mc0e0cc429f" y="131.2"/>
     <use style="fill:#ffd701;stroke:#ffd701;stroke-width:3;" x="315.3486" xlink:href="#mc0e0cc429f" y="145.10408"/>
     <use style="fill:#ffd701;stroke:#ffd701;stroke-width:3;" x="153.213346" xlink:href="#mc0e0cc429f" y="127.188826"/>
     <use style="fill:#ffd701;stroke:#ffd701;stroke-width:3;" x="332.07" xlink:href="#mc0e0cc429f" y="140.26"/>
     <use style="fill:#ffd701;stroke:#ffd701;stroke-width:3;" x="267.9372" xlink:href="#mc0e0cc429f" y="133.64016"/>
     <use style="fill:#ffd701;stroke:#ffd701;stroke-width:3;" x="186.23339" xlink:href="#mc0e0cc429f" y="111.75939"/>
     <use style="fill:#ffd701;stroke:#ffd701;stroke-width:3;" x="366.5172" xlink:href="#mc0e0cc429f" y="134.84816"/>
     <use style="fill:#ffd701;stroke:#ffd701;stroke-width:3;" x="357.1614" xlink:href="#mc0e0cc429f" y="133.60392"/>
     <use style="fill:#ffd701;stroke:#ffd701;stroke-width:3;" x="329.28" xlink:href="#mc0e0cc429f" y="123.952"/>
     <use style="fill:#ffd701;stroke:#ffd701;stroke-width:3;" x="367.281061" xlink:href="#mc0e0cc429f" y="137.903581"/>
     <use style="fill:#ffd701;stroke:#ffd701;stroke-width:3;" x="379.4814" xlink:href="#mc0e0cc429f" y="137.22792"/>
     <use style="fill:#ffd701;stroke:#ffd701;stroke-width:3;" x="317.2272" xlink:href="#mc0e0cc429f" y="112.50016"/>
     <use style="fill:#ffd701;stroke:#ffd701;stroke-width:3;" x="371.1672" xlink:href="#mc0e0cc429f" y="131.82816"/>
     <use style="fill:#ffd701;stroke:#ffd701;stroke-width:3;" x="315.3486" xlink:href="#mc0e0cc429f" y="112.48808"/>
     <use style="fill:#ffd701;stroke:#ffd701;stroke-width:3;" x="363.6528" xlink:href="#mc0e0cc429f" y="135.40384"/>
     <use style="fill:#ffd701;stroke:#ffd701;stroke-width:3;" x="329.3358" xlink:href="#mc0e0cc429f" y="116.74024"/>
     <use style="fill:#ffd701;stroke:#ffd701;stroke-width:3;" x="375.7428" xlink:href="#mc0e0cc429f" y="134.79984"/>
     <use style="fill:#ffd701;stroke:#ffd701;stroke-width:3;" x="364.6014" xlink:href="#mc0e0cc429f" y="139.64392"/>
     <use style="fill:#ffd701;stroke:#ffd701;stroke-width:3;" x="133.9986" xlink:href="#mc0e0cc429f" y="103.42808"/>
     <use style="fill:#ffd701;stroke:#ffd701;stroke-width:3;" x="308.82" xlink:href="#mc0e0cc429f" y="122.744"/>
     <use style="fill:#ffd701;stroke:#ffd701;stroke-width:3;" x="366.4428" xlink:href="#mc0e0cc429f" y="133.59184"/>
     <use style="fill:#ffd701;stroke:#ffd701;stroke-width:3;" x="363.7086" xlink:href="#mc0e0cc429f" y="131.81608"/>
     <use style="fill:#ffd701;stroke:#ffd701;stroke-width:3;" x="346.9314" xlink:href="#mc0e0cc429f" y="125.75192"/>
     <use style="fill:#ffd701;stroke:#ffd701;stroke-width:3;" x="297.228732" xlink:href="#mc0e0cc429f" y="127.807772"/>
     <use style="fill:#ffd701;stroke:#ffd701;stroke-width:3;" x="177.69" xlink:href="#mc0e0cc429f" y="102.812"/>
     <use style="fill:#ffd701;stroke:#ffd701;stroke-width:3;" x="296.73" xlink:href="#mc0e0cc429f" y="134.22"/>
     <use style="fill:#ffd701;stroke:#ffd701;stroke-width:3;" x="340.411312" xlink:href="#mc0e0cc429f" y="121.578792"/>
     <use style="fill:#ffd701;stroke:#ffd701;stroke-width:3;" x="328.3128" xlink:href="#mc0e0cc429f" y="125.73984"/>
     <use style="fill:#ffd701;stroke:#ffd701;stroke-width:3;" x="212.0628" xlink:href="#mc0e0cc429f" y="125.13584"/>
     <use style="fill:#ffd701;stroke:#ffd701;stroke-width:3;" x="362.715549" xlink:href="#mc0e0cc429f" y="146.957029"/>
     <use style="fill:#ffd701;stroke:#ffd701;stroke-width:3;" x="329.2614" xlink:href="#mc0e0cc429f" y="129.97992"/>
     <use style="fill:#ffd701;stroke:#ffd701;stroke-width:3;" x="361.8672" xlink:href="#mc0e0cc429f" y="141.49216"/>
     <use style="fill:#ffd701;stroke:#ffd701;stroke-width:3;" x="290.2572" xlink:href="#mc0e0cc429f" y="122.76816"/>
     <use style="fill:#ffd701;stroke:#ffd701;stroke-width:3;" x="381.3786" xlink:href="#mc0e0cc429f" y="138.46008"/>
     <use style="fill:#ffd701;stroke:#ffd701;stroke-width:3;" x="380.4486" xlink:href="#mc0e0cc429f" y="142.68808"/>
     <use style="fill:#ffd701;stroke:#ffd701;stroke-width:3;" x="317.2272" xlink:href="#mc0e0cc429f" y="112.50016"/>
     <use style="fill:#ffd701;stroke:#ffd701;stroke-width:3;" x="372.018386" xlink:href="#mc0e0cc429f" y="138.523346"/>
     <use style="fill:#ffd701;stroke:#ffd701;stroke-width:3;" x="248.37" xlink:href="#mc0e0cc429f" y="129.388"/>
     <use style="fill:#ffd701;stroke:#ffd701;stroke-width:3;" x="220.4886" xlink:href="#mc0e0cc429f" y="126.98408"/>
     <use style="fill:#ffd701;stroke:#ffd701;stroke-width:3;" x="377.6214" xlink:href="#mc0e0cc429f" y="142.05992"/>
     <use style="fill:#ffd701;stroke:#ffd701;stroke-width:3;" x="375.78" xlink:href="#mc0e0cc429f" y="140.864"/>
     <use style="fill:#ffd701;stroke:#ffd701;stroke-width:3;" x="351.5442" xlink:href="#mc0e0cc429f" y="138.41176"/>
     <use style="fill:#ffd701;stroke:#ffd701;stroke-width:3;" x="364.6386" xlink:href="#mc0e0cc429f" y="127.58808"/>
     <use style="fill:#ffd701;stroke:#ffd701;stroke-width:3;" x="231.63" xlink:href="#mc0e0cc429f" y="107.644"/>
     <use style="fill:#ffd701;stroke:#ffd701;stroke-width:3;" x="370.2372" xlink:href="#mc0e0cc429f" y="136.05616"/>
     <use style="fill:#ffd701;stroke:#ffd701;stroke-width:3;" x="332.0886" xlink:href="#mc0e0cc429f" y="116.11208"/>
     <use style="fill:#ffd701;stroke:#ffd701;stroke-width:3;" x="334.9158" xlink:href="#mc0e0cc429f" y="127.61224"/>
     <use style="fill:#ffd701;stroke:#ffd701;stroke-width:3;" x="378.544149" xlink:href="#mc0e0cc429f" y="141.533109"/>
     <use style="fill:#ffd701;stroke:#ffd701;stroke-width:3;" x="212.0628" xlink:href="#mc0e0cc429f" y="114.26384"/>
     <use style="fill:#ffd701;stroke:#ffd701;stroke-width:3;" x="380.4858" xlink:href="#mc0e0cc429f" y="137.88024"/>
     <use style="fill:#ffd701;stroke:#ffd701;stroke-width:3;" x="330.861946" xlink:href="#mc0e0cc429f" y="136.260906"/>
     <use style="fill:#ffd701;stroke:#ffd701;stroke-width:3;" x="219.54" xlink:href="#mc0e0cc429f" y="111.872"/>
     <use style="fill:#ffd701;stroke:#ffd701;stroke-width:3;" x="340.4586" xlink:href="#mc0e0cc429f" y="125.17208"/>
     <use style="fill:#ffd701;stroke:#ffd701;stroke-width:3;" x="364.575549" xlink:href="#mc0e0cc429f" y="142.125029"/>
     <use style="fill:#ffd701;stroke:#ffd701;stroke-width:3;" x="291.2058" xlink:href="#mc0e0cc429f" y="123.38424"/>
     <use style="fill:#ffd701;stroke:#ffd701;stroke-width:3;" x="376.7286" xlink:href="#mc0e0cc429f" y="145.10408"/>
     <use style="fill:#ffd701;stroke:#ffd701;stroke-width:3;" x="329.3358" xlink:href="#mc0e0cc429f" y="138.48424"/>
     <use style="fill:#ffd701;stroke:#ffd701;stroke-width:3;" x="228.269705" xlink:href="#mc0e0cc429f" y="130.338225"/>
     <use style="fill:#ffd701;stroke:#ffd701;stroke-width:3;" x="365.5314" xlink:href="#mc0e0cc429f" y="142.66392"/>
     <use style="fill:#ffd701;stroke:#ffd701;stroke-width:3;" x="368.34" xlink:href="#mc0e0cc429f" y="142.072"/>
     <use style="fill:#ffd701;stroke:#ffd701;stroke-width:3;" x="310.093942" xlink:href="#mc0e0cc429f" y="142.428462"/>
     <use style="fill:#ffd701;stroke:#ffd701;stroke-width:3;" x="158.1786" xlink:href="#mc0e0cc429f" y="134.83608"/>
     <use style="fill:#ffd701;stroke:#ffd701;stroke-width:3;" x="345.09" xlink:href="#mc0e0cc429f" y="124.556"/>
     <use style="fill:#ffd701;stroke:#ffd701;stroke-width:3;" x="377.6028" xlink:href="#mc0e0cc429f" y="140.83984"/>
     <use style="fill:#ffd701;stroke:#ffd701;stroke-width:3;" x="365.5686" xlink:href="#mc0e0cc429f" y="134.23208"/>
     <use style="fill:#ffd701;stroke:#ffd701;stroke-width:3;" x="236.2986" xlink:href="#mc0e0cc429f" y="113.09208"/>
     <use style="fill:#ffd701;stroke:#ffd701;stroke-width:3;" x="310.7172" xlink:href="#mc0e0cc429f" y="120.35216"/>
     <use style="fill:#ffd701;stroke:#ffd701;stroke-width:3;" x="343.976522" xlink:href="#mc0e0cc429f" y="145.863482"/>
     <use style="fill:#ffd701;stroke:#ffd701;stroke-width:3;" x="324.6486" xlink:href="#mc0e0cc429f" y="146.31208"/>
     <use style="fill:#ffd701;stroke:#ffd701;stroke-width:3;" x="341.3514" xlink:href="#mc0e0cc429f" y="140.24792"/>
     <use style="fill:#ffd701;stroke:#ffd701;stroke-width:3;" x="228.8028" xlink:href="#mc0e0cc429f" y="136.00784"/>
     <use style="fill:#ffd701;stroke:#ffd701;stroke-width:3;" x="291.935298" xlink:href="#mc0e0cc429f" y="136.101818"/>
     <use style="fill:#ffd701;stroke:#ffd701;stroke-width:3;" x="237.21" xlink:href="#mc0e0cc429f" y="133.012"/>
     <use style="fill:#ffd701;stroke:#ffd701;stroke-width:3;" x="274.3728" xlink:href="#mc0e0cc429f" y="131.77984"/>
     <use style="fill:#ffd701;stroke:#ffd701;stroke-width:3;" x="349.727075" xlink:href="#mc0e0cc429f" y="137.272555"/>
     <use style="fill:#ffd701;stroke:#ffd701;stroke-width:3;" x="137.6628" xlink:href="#mc0e0cc429f" y="133.59184"/>
     <use style="fill:#ffd701;stroke:#ffd701;stroke-width:3;" x="291.15" xlink:href="#mc0e0cc429f" y="141.468"/>
    </g>
   </g>
   <g id="PathCollection_2">
    <defs>
     <path d="M 0 4.55 
C 1.206674 4.55 2.364088 4.070583 3.217336 3.217336 
C 4.070583 2.364088 4.55 1.206674 4.55 0 
C 4.55 -1.206674 4.070583 -2.364088 3.217336 -3.217336 
C 2.364088 -4.070583 1.206674 -4.55 0 -4.55 
C -1.206674 -4.55 -2.364088 -4.070583 -3.217336 -3.217336 
C -4.070583 -2.364088 -4.55 -1.206674 -4.55 0 
C -4.55 1.206674 -4.070583 2.364088 -3.217336 3.217336 
C -2.364088 4.070583 -1.206674 4.55 0 4.55 
z
" id="m30caa682d9" style="stroke:#002147;stroke-width:3;"/>
    </defs>
    <g clip-path="url(#p332e7bf7ce)">
     <use style="fill:#002147;stroke:#002147;stroke-width:3;" x="58.65" xlink:href="#m30caa682d9" y="140.26"/>
     <use style="fill:#002147;stroke:#002147;stroke-width:3;" x="67.0386" xlink:href="#m30caa682d9" y="136.04408"/>
     <use style="fill:#002147;stroke:#002147;stroke-width:3;" x="283.6914" xlink:href="#m30caa682d9" y="155.95192"/>
     <use style="fill:#002147;stroke:#002147;stroke-width:3;" x="195.36" xlink:href="#m30caa682d9" y="142.072"/>
     <use style="fill:#002147;stroke:#002147;stroke-width:3;" x="54" xlink:href="#m30caa682d9" y="143.28"/>
     <use style="fill:#002147;stroke:#002147;stroke-width:3;" x="54" xlink:href="#m30caa682d9" y="143.28"/>
     <use style="fill:#002147;stroke:#002147;stroke-width:3;" x="211.1514" xlink:href="#m30caa682d9" y="145.07992"/>
     <use style="fill:#002147;stroke:#002147;stroke-width:3;" x="332.07" xlink:href="#m30caa682d9" y="154.756"/>
     <use style="fill:#002147;stroke:#002147;stroke-width:3;" x="94.210678" xlink:href="#m30caa682d9" y="135.284678"/>
     <use style="fill:#002147;stroke:#002147;stroke-width:3;" x="55.86" xlink:href="#m30caa682d9" y="142.072"/>
     <use style="fill:#002147;stroke:#002147;stroke-width:3;" x="100.5186" xlink:href="#m30caa682d9" y="139.66808"/>
     <use style="fill:#002147;stroke:#002147;stroke-width:3;" x="358.1286" xlink:href="#m30caa682d9" y="142.68808"/>
     <use style="fill:#002147;stroke:#002147;stroke-width:3;" x="246.980044" xlink:href="#m30caa682d9" y="136.306564"/>
     <use style="fill:#002147;stroke:#002147;stroke-width:3;" x="243.72" xlink:href="#m30caa682d9" y="139.656"/>
     <use style="fill:#002147;stroke:#002147;stroke-width:3;" x="256.7214" xlink:href="#m30caa682d9" y="137.22792"/>
     <use style="fill:#002147;stroke:#002147;stroke-width:3;" x="293.653434" xlink:href="#m30caa682d9" y="145.857954"/>
     <use style="fill:#002147;stroke:#002147;stroke-width:3;" x="122.8014" xlink:href="#m30caa682d9" y="148.09992"/>
     <use style="fill:#002147;stroke:#002147;stroke-width:3;" x="54" xlink:href="#m30caa682d9" y="143.28"/>
     <use style="fill:#002147;stroke:#002147;stroke-width:3;" x="217.6614" xlink:href="#m30caa682d9" y="144.47592"/>
     <use style="fill:#002147;stroke:#002147;stroke-width:3;" x="350.414959" xlink:href="#m30caa682d9" y="148.857479"/>
     <use style="fill:#002147;stroke:#002147;stroke-width:3;" x="227.8728" xlink:href="#m30caa682d9" y="136.61184"/>
     <use style="fill:#002147;stroke:#002147;stroke-width:3;" x="103.3086" xlink:href="#m30caa682d9" y="141.48008"/>
     <use style="fill:#002147;stroke:#002147;stroke-width:3;" x="54" xlink:href="#m30caa682d9" y="143.28"/>
     <use style="fill:#002147;stroke:#002147;stroke-width:3;" x="273.4986" xlink:href="#m30caa682d9" y="146.91608"/>
     <use style="fill:#002147;stroke:#002147;stroke-width:3;" x="151.65" xlink:href="#m30caa682d9" y="130.596"/>
     <use style="fill:#002147;stroke:#002147;stroke-width:3;" x="68.8614" xlink:href="#m30caa682d9" y="143.26792"/>
     <use style="fill:#002147;stroke:#002147;stroke-width:3;" x="143.28" xlink:href="#m30caa682d9" y="154.152"/>
     <use style="fill:#002147;stroke:#002147;stroke-width:3;" x="141.42" xlink:href="#m30caa682d9" y="148.112"/>
     <use style="fill:#002147;stroke:#002147;stroke-width:3;" x="54" xlink:href="#m30caa682d9" y="143.28"/>
     <use style="fill:#002147;stroke:#002147;stroke-width:3;" x="54" xlink:href="#m30caa682d9" y="143.28"/>
     <use style="fill:#002147;stroke:#002147;stroke-width:3;" x="173.97" xlink:href="#m30caa682d9" y="145.092"/>
     <use style="fill:#002147;stroke:#002147;stroke-width:3;" x="218.5914" xlink:href="#m30caa682d9" y="136.62392"/>
     <use style="fill:#002147;stroke:#002147;stroke-width:3;" x="344.052498" xlink:href="#m30caa682d9" y="137.333978"/>
     <use style="fill:#002147;stroke:#002147;stroke-width:3;" x="81.9186" xlink:href="#m30caa682d9" y="144.50008"/>
     <use style="fill:#002147;stroke:#002147;stroke-width:3;" x="278.1114" xlink:href="#m30caa682d9" y="145.07992"/>
     <use style="fill:#002147;stroke:#002147;stroke-width:3;" x="198.15" xlink:href="#m30caa682d9" y="140.26"/>
     <use style="fill:#002147;stroke:#002147;stroke-width:3;" x="180.224959" xlink:href="#m30caa682d9" y="143.421479"/>
     <use style="fill:#002147;stroke:#002147;stroke-width:3;" x="54" xlink:href="#m30caa682d9" y="143.28"/>
     <use style="fill:#002147;stroke:#002147;stroke-width:3;" x="215.82" xlink:href="#m30caa682d9" y="132.408"/>
     <use style="fill:#002147;stroke:#002147;stroke-width:3;" x="292.707671" xlink:href="#m30caa682d9" y="139.224191"/>
     <use style="fill:#002147;stroke:#002147;stroke-width:3;" x="315.3486" xlink:href="#m30caa682d9" y="141.48008"/>
     <use style="fill:#002147;stroke:#002147;stroke-width:3;" x="122.8014" xlink:href="#m30caa682d9" y="137.22792"/>
     <use style="fill:#002147;stroke:#002147;stroke-width:3;" x="163.74" xlink:href="#m30caa682d9" y="148.112"/>
     <use style="fill:#002147;stroke:#002147;stroke-width:3;" x="323.287332" xlink:href="#m30caa682d9" y="148.355852"/>
     <use style="fill:#002147;stroke:#002147;stroke-width:3;" x="74.46" xlink:href="#m30caa682d9" y="137.24"/>
     <use style="fill:#002147;stroke:#002147;stroke-width:3;" x="55.86" xlink:href="#m30caa682d9" y="142.072"/>
     <use style="fill:#002147;stroke:#002147;stroke-width:3;" x="164.071017" xlink:href="#m30caa682d9" y="129.777017"/>
     <use style="fill:#002147;stroke:#002147;stroke-width:3;" x="177.7086" xlink:href="#m30caa682d9" y="143.89608"/>
     <use style="fill:#002147;stroke:#002147;stroke-width:3;" x="107.0286" xlink:href="#m30caa682d9" y="135.44008"/>
     <use style="fill:#002147;stroke:#002147;stroke-width:3;" x="54.93" xlink:href="#m30caa682d9" y="142.676"/>
     <use style="fill:#002147;stroke:#002147;stroke-width:3;" x="54" xlink:href="#m30caa682d9" y="143.28"/>
     <use style="fill:#002147;stroke:#002147;stroke-width:3;" x="228.8214" xlink:href="#m30caa682d9" y="126.35592"/>
     <use style="fill:#002147;stroke:#002147;stroke-width:3;" x="54" xlink:href="#m30caa682d9" y="143.28"/>
     <use style="fill:#002147;stroke:#002147;stroke-width:3;" x="54" xlink:href="#m30caa682d9" y="143.28"/>
     <use style="fill:#002147;stroke:#002147;stroke-width:3;" x="69.8286" xlink:href="#m30caa682d9" y="137.85608"/>
     <use style="fill:#002147;stroke:#002147;stroke-width:3;" x="352.5858" xlink:href="#m30caa682d9" y="148.75224"/>
     <use style="fill:#002147;stroke:#002147;stroke-width:3;" x="243.959278" xlink:href="#m30caa682d9" y="137.108758"/>
     <use style="fill:#002147;stroke:#002147;stroke-width:3;" x="256.7214" xlink:href="#m30caa682d9" y="144.47592"/>
     <use style="fill:#002147;stroke:#002147;stroke-width:3;" x="160.95" xlink:href="#m30caa682d9" y="120.932"/>
     <use style="fill:#002147;stroke:#002147;stroke-width:3;" x="54" xlink:href="#m30caa682d9" y="143.28"/>
     <use style="fill:#002147;stroke:#002147;stroke-width:3;" x="54" xlink:href="#m30caa682d9" y="143.28"/>
     <use style="fill:#002147;stroke:#002147;stroke-width:3;" x="80.04" xlink:href="#m30caa682d9" y="126.368"/>
     <use style="fill:#002147;stroke:#002147;stroke-width:3;" x="367.4472" xlink:href="#m30caa682d9" y="134.24416"/>
     <use style="fill:#002147;stroke:#002147;stroke-width:3;" x="263.079447" xlink:href="#m30caa682d9" y="121.066927"/>
     <use style="fill:#002147;stroke:#002147;stroke-width:3;" x="310.68" xlink:href="#m30caa682d9" y="117.912"/>
     <use style="fill:#002147;stroke:#002147;stroke-width:3;" x="204.6786" xlink:href="#m30caa682d9" y="140.87608"/>
     <use style="fill:#002147;stroke:#002147;stroke-width:3;" x="86.5314" xlink:href="#m30caa682d9" y="131.79192"/>
     <use style="fill:#002147;stroke:#002147;stroke-width:3;" x="364.62" xlink:href="#m30caa682d9" y="137.24"/>
     <use style="fill:#002147;stroke:#002147;stroke-width:3;" x="237.2286" xlink:href="#m30caa682d9" y="134.23208"/>
     <use style="fill:#002147;stroke:#002147;stroke-width:3;" x="345.0528" xlink:href="#m30caa682d9" y="129.36384"/>
     <use style="fill:#002147;stroke:#002147;stroke-width:3;" x="64.23" xlink:href="#m30caa682d9" y="136.636"/>
     <use style="fill:#002147;stroke:#002147;stroke-width:3;" x="174.9" xlink:href="#m30caa682d9" y="126.368"/>
     <use style="fill:#002147;stroke:#002147;stroke-width:3;" x="85.6014" xlink:href="#m30caa682d9" y="143.26792"/>
     <use style="fill:#002147;stroke:#002147;stroke-width:3;" x="54" xlink:href="#m30caa682d9" y="143.28"/>
     <use style="fill:#002147;stroke:#002147;stroke-width:3;" x="204.66" xlink:href="#m30caa682d9" y="143.28"/>
     <use style="fill:#002147;stroke:#002147;stroke-width:3;" x="233.4342" xlink:href="#m30caa682d9" y="142.63976"/>
     <use style="fill:#002147;stroke:#002147;stroke-width:3;" x="193.5" xlink:href="#m30caa682d9" y="154.152"/>
     <use style="fill:#002147;stroke:#002147;stroke-width:3;" x="242.79" xlink:href="#m30caa682d9" y="136.636"/>
     <use style="fill:#002147;stroke:#002147;stroke-width:3;" x="118.1886" xlink:href="#m30caa682d9" y="131.81608"/>
     <use style="fill:#002147;stroke:#002147;stroke-width:3;" x="55.86" xlink:href="#m30caa682d9" y="142.072"/>
     <use style="fill:#002147;stroke:#002147;stroke-width:3;" x="110.73" xlink:href="#m30caa682d9" y="146.3"/>
     <use style="fill:#002147;stroke:#002147;stroke-width:3;" x="352.53" xlink:href="#m30caa682d9" y="141.468"/>
     <use style="fill:#002147;stroke:#002147;stroke-width:3;" x="221.4" xlink:href="#m30caa682d9" y="157.776"/>
     <use style="fill:#002147;stroke:#002147;stroke-width:3;" x="91.2" xlink:href="#m30caa682d9" y="137.24"/>
     <use style="fill:#002147;stroke:#002147;stroke-width:3;" x="54" xlink:href="#m30caa682d9" y="143.28"/>
     <use style="fill:#002147;stroke:#002147;stroke-width:3;" x="59.58" xlink:href="#m30caa682d9" y="139.656"/>
     <use style="fill:#002147;stroke:#002147;stroke-width:3;" x="320.8728" xlink:href="#m30caa682d9" y="145.06784"/>
     <use style="fill:#002147;stroke:#002147;stroke-width:3;" x="286.051393" xlink:href="#m30caa682d9" y="137.603833"/>
     <use style="fill:#002147;stroke:#002147;stroke-width:3;" x="292.0986" xlink:href="#m30caa682d9" y="152.95608"/>
     <use style="fill:#002147;stroke:#002147;stroke-width:3;" x="69.8286" xlink:href="#m30caa682d9" y="148.72808"/>
     <use style="fill:#002147;stroke:#002147;stroke-width:3;" x="217.68" xlink:href="#m30caa682d9" y="142.072"/>
     <use style="fill:#002147;stroke:#002147;stroke-width:3;" x="360.805424" xlink:href="#m30caa682d9" y="146.965424"/>
     <use style="fill:#002147;stroke:#002147;stroke-width:3;" x="263.2686" xlink:href="#m30caa682d9" y="142.68808"/>
     <use style="fill:#002147;stroke:#002147;stroke-width:3;" x="83.7414" xlink:href="#m30caa682d9" y="126.35592"/>
     <use style="fill:#002147;stroke:#002147;stroke-width:3;" x="326.209109" xlink:href="#m30caa682d9" y="148.922588"/>
     <use style="fill:#002147;stroke:#002147;stroke-width:3;" x="250.2672" xlink:href="#m30caa682d9" y="141.49216"/>
    </g>
   </g>
   <g id="line2d_15">
    <path clip-path="url(#p332e7bf7ce)" d="M 54 132.132918 
L 388.8 132.132918 
" style="fill:none;stroke:#ffd701;stroke-linecap:round;stroke-width:3;"/>
   </g>
   <g id="line2d_16">
    <path clip-path="url(#p332e7bf7ce)" d="M 54 111.688878 
L 388.8 111.688878 
" style="fill:none;stroke:#ffd701;stroke-dasharray:11.1,4.8;stroke-dashoffset:0;stroke-width:3;"/>
   </g>
   <g id="line2d_17">
    <path clip-path="url(#p332e7bf7ce)" d="M 54 152.576958 
L 388.8 152.576958 
" style="fill:none;stroke:#ffd701;stroke-dasharray:11.1,4.8;stroke-dashoffset:0;stroke-width:3;"/>
   </g>
   <g id="line2d_18">
    <path clip-path="url(#p332e7bf7ce)" d="M 54 140.753862 
L 388.8 140.753862 
" style="fill:none;stroke:#002147;stroke-linecap:round;stroke-width:3;"/>
   </g>
   <g id="line2d_19">
    <path clip-path="url(#p332e7bf7ce)" d="M 54 126.350386 
L 388.8 126.350386 
" style="fill:none;stroke:#002147;stroke-dasharray:11.1,4.8;stroke-dashoffset:0;stroke-width:3;"/>
   </g>
   <g id="line2d_20">
    <path clip-path="url(#p332e7bf7ce)" d="M 54 155.157337 
L 388.8 155.157337 
" style="fill:none;stroke:#002147;stroke-dasharray:11.1,4.8;stroke-dashoffset:0;stroke-width:3;"/>
   </g>
   <g id="patch_3">
    <path d="M 54 252 
L 54 34.56 
" style="fill:none;stroke:#262626;stroke-linecap:square;stroke-linejoin:miter;stroke-width:1.25;"/>
   </g>
   <g id="patch_4">
    <path d="M 388.8 252 
L 388.8 34.56 
" style="fill:none;stroke:#262626;stroke-linecap:square;stroke-linejoin:miter;stroke-width:1.25;"/>
   </g>
   <g id="patch_5">
    <path d="M 54 252 
L 388.8 252 
" style="fill:none;stroke:#262626;stroke-linecap:square;stroke-linejoin:miter;stroke-width:1.25;"/>
   </g>
   <g id="patch_6">
    <path d="M 54 34.56 
L 388.8 34.56 
" style="fill:none;stroke:#262626;stroke-linecap:square;stroke-linejoin:miter;stroke-width:1.25;"/>
   </g>
   <g id="text_17">
    <!-- Bland-Altman comparison of PIR-derived sleep and EEG-scored sleep -->
    <defs>
     <path d="M 7.328125 0 
L 7.328125 71.578125 
L 34.1875 71.578125 
Q 42.390625 71.578125 47.34375 69.40625 
Q 52.296875 67.234375 55.09375 62.71875 
Q 57.90625 58.203125 57.90625 53.265625 
Q 57.90625 48.6875 55.421875 44.625 
Q 52.9375 40.578125 47.90625 38.09375 
Q 54.390625 36.1875 57.875 31.59375 
Q 61.375 27 61.375 20.75 
Q 61.375 15.71875 59.25 11.390625 
Q 57.125 7.078125 54 4.734375 
Q 50.875 2.390625 46.15625 1.1875 
Q 41.453125 0 34.625 0 
z
M 16.796875 41.5 
L 32.28125 41.5 
Q 38.578125 41.5 41.3125 42.328125 
Q 44.921875 43.40625 46.75 45.890625 
Q 48.578125 48.390625 48.578125 52.15625 
Q 48.578125 55.71875 46.875 58.421875 
Q 45.171875 61.140625 41.984375 62.140625 
Q 38.8125 63.140625 31.109375 63.140625 
L 16.796875 63.140625 
z
M 16.796875 8.453125 
L 34.625 8.453125 
Q 39.203125 8.453125 41.0625 8.796875 
Q 44.34375 9.375 46.53125 10.734375 
Q 48.734375 12.109375 50.140625 14.71875 
Q 51.5625 17.328125 51.5625 20.75 
Q 51.5625 24.75 49.515625 27.703125 
Q 47.46875 30.671875 43.828125 31.859375 
Q 40.1875 33.0625 33.34375 33.0625 
L 16.796875 33.0625 
z
" id="ArialMT-42"/>
     <path d="M 6.390625 0 
L 6.390625 71.578125 
L 15.1875 71.578125 
L 15.1875 0 
z
" id="ArialMT-6c"/>
     <path d="M 6.59375 -19.875 
L 6.59375 51.859375 
L 14.59375 51.859375 
L 14.59375 45.125 
Q 17.4375 49.078125 21 51.046875 
Q 24.5625 53.03125 29.640625 53.03125 
Q 36.28125 53.03125 41.359375 49.609375 
Q 46.4375 46.1875 49.015625 39.953125 
Q 51.609375 33.734375 51.609375 26.3125 
Q 51.609375 18.359375 48.75 11.984375 
Q 45.90625 5.609375 40.453125 2.21875 
Q 35.015625 -1.171875 29 -1.171875 
Q 24.609375 -1.171875 21.109375 0.6875 
Q 17.625 2.546875 15.375 5.375 
L 15.375 -19.875 
z
M 14.546875 25.640625 
Q 14.546875 15.625 18.59375 10.84375 
Q 22.65625 6.0625 28.421875 6.0625 
Q 34.28125 6.0625 38.453125 11.015625 
Q 42.625 15.96875 42.625 26.375 
Q 42.625 36.28125 38.546875 41.203125 
Q 34.46875 46.140625 28.8125 46.140625 
Q 23.1875 46.140625 18.859375 40.890625 
Q 14.546875 35.640625 14.546875 25.640625 
z
" id="ArialMT-70"/>
    </defs>
    <g style="fill:#262626;" transform="translate(3.527187 28.56)scale(0.14 -0.14)">
     <use xlink:href="#ArialMT-42"/>
     <use x="66.699219" xlink:href="#ArialMT-6c"/>
     <use x="88.916016" xlink:href="#ArialMT-61"/>
     <use x="144.53125" xlink:href="#ArialMT-6e"/>
     <use x="200.146484" xlink:href="#ArialMT-64"/>
     <use x="255.761719" xlink:href="#ArialMT-2d"/>
     <use x="289.0625" xlink:href="#ArialMT-41"/>
     <use x="355.761719" xlink:href="#ArialMT-6c"/>
     <use x="377.978516" xlink:href="#ArialMT-74"/>
     <use x="405.761719" xlink:href="#ArialMT-6d"/>
     <use x="489.0625" xlink:href="#ArialMT-61"/>
     <use x="544.677734" xlink:href="#ArialMT-6e"/>
     <use x="600.292969" xlink:href="#ArialMT-20"/>
     <use x="628.076172" xlink:href="#ArialMT-63"/>
     <use x="678.076172" xlink:href="#ArialMT-6f"/>
     <use x="733.691406" xlink:href="#ArialMT-6d"/>
     <use x="816.992188" xlink:href="#ArialMT-70"/>
     <use x="872.607422" xlink:href="#ArialMT-61"/>
     <use x="928.222656" xlink:href="#ArialMT-72"/>
     <use x="961.523438" xlink:href="#ArialMT-69"/>
     <use x="983.740234" xlink:href="#ArialMT-73"/>
     <use x="1033.740234" xlink:href="#ArialMT-6f"/>
     <use x="1089.355469" xlink:href="#ArialMT-6e"/>
     <use x="1144.970703" xlink:href="#ArialMT-20"/>
     <use x="1172.753906" xlink:href="#ArialMT-6f"/>
     <use x="1228.369141" xlink:href="#ArialMT-66"/>
     <use x="1256.152344" xlink:href="#ArialMT-20"/>
     <use x="1283.935547" xlink:href="#ArialMT-50"/>
     <use x="1350.634766" xlink:href="#ArialMT-49"/>
     <use x="1378.417969" xlink:href="#ArialMT-52"/>
     <use x="1450.634766" xlink:href="#ArialMT-2d"/>
     <use x="1483.935547" xlink:href="#ArialMT-64"/>
     <use x="1539.550781" xlink:href="#ArialMT-65"/>
     <use x="1595.166016" xlink:href="#ArialMT-72"/>
     <use x="1628.466797" xlink:href="#ArialMT-69"/>
     <use x="1650.683594" xlink:href="#ArialMT-76"/>
     <use x="1700.683594" xlink:href="#ArialMT-65"/>
     <use x="1756.298828" xlink:href="#ArialMT-64"/>
     <use x="1811.914062" xlink:href="#ArialMT-20"/>
     <use x="1839.697266" xlink:href="#ArialMT-73"/>
     <use x="1889.697266" xlink:href="#ArialMT-6c"/>
     <use x="1911.914062" xlink:href="#ArialMT-65"/>
     <use x="1967.529297" xlink:href="#ArialMT-65"/>
     <use x="2023.144531" xlink:href="#ArialMT-70"/>
     <use x="2078.759766" xlink:href="#ArialMT-20"/>
     <use x="2106.542969" xlink:href="#ArialMT-61"/>
     <use x="2162.158203" xlink:href="#ArialMT-6e"/>
     <use x="2217.773438" xlink:href="#ArialMT-64"/>
     <use x="2273.388672" xlink:href="#ArialMT-20"/>
     <use x="2301.171875" xlink:href="#ArialMT-45"/>
     <use x="2367.871094" xlink:href="#ArialMT-45"/>
     <use x="2434.570312" xlink:href="#ArialMT-47"/>
     <use x="2512.353516" xlink:href="#ArialMT-2d"/>
     <use x="2545.654297" xlink:href="#ArialMT-73"/>
     <use x="2595.654297" xlink:href="#ArialMT-63"/>
     <use x="2645.654297" xlink:href="#ArialMT-6f"/>
     <use x="2701.269531" xlink:href="#ArialMT-72"/>
     <use x="2734.570312" xlink:href="#ArialMT-65"/>
     <use x="2790.185547" xlink:href="#ArialMT-64"/>
     <use x="2845.800781" xlink:href="#ArialMT-20"/>
     <use x="2873.583984" xlink:href="#ArialMT-73"/>
     <use x="2923.583984" xlink:href="#ArialMT-6c"/>
     <use x="2945.800781" xlink:href="#ArialMT-65"/>
     <use x="3001.416016" xlink:href="#ArialMT-65"/>
     <use x="3057.03125" xlink:href="#ArialMT-70"/>
    </g>
   </g>
  </g>
 </g>
 <defs>
  <clipPath id="p332e7bf7ce">
   <rect height="217.44" width="334.8" x="54" y="34.56"/>
  </clipPath>
 </defs>
</svg>
